<mxfile host="Electron" agent="Mozilla/5.0 (Macintosh; Intel Mac OS X 10_15_7) AppleWebKit/537.36 (KHTML, like Gecko) draw.io/26.0.7 Chrome/128.0.6613.186 Electron/32.2.5 Safari/537.36" version="26.0.7">
  <diagram id="C5RBs43oDa-KdzZeNtuy" name="Page-1">
    <mxGraphModel dx="1114" dy="784" grid="1" gridSize="10" guides="1" tooltips="1" connect="1" arrows="1" fold="1" page="1" pageScale="1" pageWidth="827" pageHeight="1169" math="0" shadow="0">
      <root>
        <mxCell id="WIyWlLk6GJQsqaUBKTNV-0" />
        <mxCell id="WIyWlLk6GJQsqaUBKTNV-1" parent="WIyWlLk6GJQsqaUBKTNV-0" />
        <mxCell id="FblH6l9M7fZanG1C1Pi8-64" value="main" style="swimlane;fontStyle=0;childLayout=stackLayout;horizontal=1;startSize=30;horizontalStack=0;resizeParent=1;resizeParentMax=0;resizeLast=0;collapsible=1;marginBottom=0;whiteSpace=wrap;html=1;" parent="WIyWlLk6GJQsqaUBKTNV-1" vertex="1">
          <mxGeometry x="30" y="260" width="140" height="60" as="geometry" />
        </mxCell>
        <mxCell id="FblH6l9M7fZanG1C1Pi8-65" value="main()" style="text;strokeColor=none;fillColor=none;align=left;verticalAlign=middle;spacingLeft=4;spacingRight=4;overflow=hidden;points=[[0,0.5],[1,0.5]];portConstraint=eastwest;rotatable=0;whiteSpace=wrap;html=1;" parent="FblH6l9M7fZanG1C1Pi8-64" vertex="1">
          <mxGeometry y="30" width="140" height="30" as="geometry" />
        </mxCell>
        <mxCell id="FblH6l9M7fZanG1C1Pi8-68" value="server" style="swimlane;fontStyle=0;childLayout=stackLayout;horizontal=1;startSize=30;horizontalStack=0;resizeParent=1;resizeParentMax=0;resizeLast=0;collapsible=1;marginBottom=0;whiteSpace=wrap;html=1;" parent="WIyWlLk6GJQsqaUBKTNV-1" vertex="1">
          <mxGeometry x="260" y="240" width="200" height="90" as="geometry" />
        </mxCell>
        <mxCell id="FblH6l9M7fZanG1C1Pi8-69" value="NewServer(ConfigInterface)" style="text;strokeColor=none;fillColor=none;align=left;verticalAlign=middle;spacingLeft=4;spacingRight=4;overflow=hidden;points=[[0,0.5],[1,0.5]];portConstraint=eastwest;rotatable=0;whiteSpace=wrap;html=1;" parent="FblH6l9M7fZanG1C1Pi8-68" vertex="1">
          <mxGeometry y="30" width="200" height="30" as="geometry" />
        </mxCell>
        <mxCell id="FblH6l9M7fZanG1C1Pi8-70" value="Start()" style="text;strokeColor=none;fillColor=none;align=left;verticalAlign=middle;spacingLeft=4;spacingRight=4;overflow=hidden;points=[[0,0.5],[1,0.5]];portConstraint=eastwest;rotatable=0;whiteSpace=wrap;html=1;" parent="FblH6l9M7fZanG1C1Pi8-68" vertex="1">
          <mxGeometry y="60" width="200" height="30" as="geometry" />
        </mxCell>
        <mxCell id="FblH6l9M7fZanG1C1Pi8-72" value="Config" style="swimlane;fontStyle=0;childLayout=stackLayout;horizontal=1;startSize=30;horizontalStack=0;resizeParent=1;resizeParentMax=0;resizeLast=0;collapsible=1;marginBottom=0;whiteSpace=wrap;html=1;" parent="WIyWlLk6GJQsqaUBKTNV-1" vertex="1">
          <mxGeometry x="20" y="420" width="140" height="60" as="geometry" />
        </mxCell>
        <mxCell id="FblH6l9M7fZanG1C1Pi8-76" value="" style="endArrow=classic;html=1;rounded=0;" parent="WIyWlLk6GJQsqaUBKTNV-1" edge="1">
          <mxGeometry width="50" height="50" relative="1" as="geometry">
            <mxPoint x="170" y="300" as="sourcePoint" />
            <mxPoint x="260" y="300" as="targetPoint" />
          </mxGeometry>
        </mxCell>
        <mxCell id="FblH6l9M7fZanG1C1Pi8-77" value="" style="endArrow=classic;html=1;rounded=0;exitX=0.414;exitY=1;exitDx=0;exitDy=0;exitPerimeter=0;entryX=0.457;entryY=-0.017;entryDx=0;entryDy=0;entryPerimeter=0;" parent="WIyWlLk6GJQsqaUBKTNV-1" source="FblH6l9M7fZanG1C1Pi8-65" edge="1">
          <mxGeometry width="50" height="50" relative="1" as="geometry">
            <mxPoint x="94.96000000000004" y="353" as="sourcePoint" />
            <mxPoint x="83.98000000000002" y="417.9599999999998" as="targetPoint" />
          </mxGeometry>
        </mxCell>
        <mxCell id="FblH6l9M7fZanG1C1Pi8-79" value="interfaces" style="swimlane;fontStyle=0;childLayout=stackLayout;horizontal=1;startSize=30;horizontalStack=0;resizeParent=1;resizeParentMax=0;resizeLast=0;collapsible=1;marginBottom=0;whiteSpace=wrap;html=1;" parent="WIyWlLk6GJQsqaUBKTNV-1" vertex="1">
          <mxGeometry x="270" y="410" width="170" height="90" as="geometry" />
        </mxCell>
        <mxCell id="FblH6l9M7fZanG1C1Pi8-80" value="ConfigInterface{}&lt;div&gt;ValidatorInterface{}&lt;/div&gt;" style="text;strokeColor=none;fillColor=none;align=left;verticalAlign=middle;spacingLeft=4;spacingRight=4;overflow=hidden;points=[[0,0.5],[1,0.5]];portConstraint=eastwest;rotatable=0;whiteSpace=wrap;html=1;" parent="FblH6l9M7fZanG1C1Pi8-79" vertex="1">
          <mxGeometry y="30" width="170" height="30" as="geometry" />
        </mxCell>
        <mxCell id="FblH6l9M7fZanG1C1Pi8-81" value="NumberSequenceInterface()" style="text;strokeColor=none;fillColor=none;align=left;verticalAlign=middle;spacingLeft=4;spacingRight=4;overflow=hidden;points=[[0,0.5],[1,0.5]];portConstraint=eastwest;rotatable=0;whiteSpace=wrap;html=1;" parent="FblH6l9M7fZanG1C1Pi8-79" vertex="1">
          <mxGeometry y="60" width="170" height="30" as="geometry" />
        </mxCell>
        <mxCell id="FblH6l9M7fZanG1C1Pi8-84" value="" style="endArrow=block;html=1;rounded=0;entryX=0;entryY=0.5;entryDx=0;entryDy=0;exitX=0.993;exitY=0.2;exitDx=0;exitDy=0;exitPerimeter=0;endFill=0;" parent="WIyWlLk6GJQsqaUBKTNV-1" target="FblH6l9M7fZanG1C1Pi8-80" edge="1">
          <mxGeometry width="50" height="50" relative="1" as="geometry">
            <mxPoint x="159.01999999999998" y="455.9999999999998" as="sourcePoint" />
            <mxPoint x="210" y="390" as="targetPoint" />
          </mxGeometry>
        </mxCell>
        <mxCell id="FblH6l9M7fZanG1C1Pi8-88" value="handler" style="swimlane;fontStyle=0;childLayout=stackLayout;horizontal=1;startSize=30;horizontalStack=0;resizeParent=1;resizeParentMax=0;resizeLast=0;collapsible=1;marginBottom=0;whiteSpace=wrap;html=1;" parent="WIyWlLk6GJQsqaUBKTNV-1" vertex="1">
          <mxGeometry x="590" y="240" width="140" height="60" as="geometry" />
        </mxCell>
        <mxCell id="FblH6l9M7fZanG1C1Pi8-89" value="HandleGetRequest()" style="text;strokeColor=none;fillColor=none;align=left;verticalAlign=middle;spacingLeft=4;spacingRight=4;overflow=hidden;points=[[0,0.5],[1,0.5]];portConstraint=eastwest;rotatable=0;whiteSpace=wrap;html=1;" parent="FblH6l9M7fZanG1C1Pi8-88" vertex="1">
          <mxGeometry y="30" width="140" height="30" as="geometry" />
        </mxCell>
        <mxCell id="FblH6l9M7fZanG1C1Pi8-92" value="service" style="swimlane;fontStyle=0;childLayout=stackLayout;horizontal=1;startSize=30;horizontalStack=0;resizeParent=1;resizeParentMax=0;resizeLast=0;collapsible=1;marginBottom=0;whiteSpace=wrap;html=1;" parent="WIyWlLk6GJQsqaUBKTNV-1" vertex="1">
          <mxGeometry x="507.5" y="450" width="305" height="60" as="geometry" />
        </mxCell>
        <mxCell id="FblH6l9M7fZanG1C1Pi8-93" value="IsValidCreditCardNumber(NumberSequenceInterface)" style="text;strokeColor=none;fillColor=none;align=left;verticalAlign=middle;spacingLeft=4;spacingRight=4;overflow=hidden;points=[[0,0.5],[1,0.5]];portConstraint=eastwest;rotatable=0;whiteSpace=wrap;html=1;" parent="FblH6l9M7fZanG1C1Pi8-92" vertex="1">
          <mxGeometry y="30" width="305" height="30" as="geometry" />
        </mxCell>
        <mxCell id="FblH6l9M7fZanG1C1Pi8-96" value="" style="endArrow=classic;html=1;rounded=0;exitX=0.518;exitY=1.067;exitDx=0;exitDy=0;exitPerimeter=0;entryX=1;entryY=0.156;entryDx=0;entryDy=0;entryPerimeter=0;" parent="WIyWlLk6GJQsqaUBKTNV-1" source="FblH6l9M7fZanG1C1Pi8-89" target="FblH6l9M7fZanG1C1Pi8-79" edge="1">
          <mxGeometry width="50" height="50" relative="1" as="geometry">
            <mxPoint x="680" y="340" as="sourcePoint" />
            <mxPoint x="730" y="290" as="targetPoint" />
            <Array as="points">
              <mxPoint x="660" y="424" />
            </Array>
          </mxGeometry>
        </mxCell>
        <mxCell id="FblH6l9M7fZanG1C1Pi8-97" value="" style="endArrow=classic;html=1;rounded=0;entryX=-0.008;entryY=0.358;entryDx=0;entryDy=0;entryPerimeter=0;" parent="WIyWlLk6GJQsqaUBKTNV-1" target="FblH6l9M7fZanG1C1Pi8-88" edge="1">
          <mxGeometry width="50" height="50" relative="1" as="geometry">
            <mxPoint x="460" y="260" as="sourcePoint" />
            <mxPoint x="510" y="210" as="targetPoint" />
          </mxGeometry>
        </mxCell>
        <mxCell id="FblH6l9M7fZanG1C1Pi8-98" value="NumberSequence" style="swimlane;fontStyle=0;childLayout=stackLayout;horizontal=1;startSize=30;horizontalStack=0;resizeParent=1;resizeParentMax=0;resizeLast=0;collapsible=1;marginBottom=0;whiteSpace=wrap;html=1;" parent="WIyWlLk6GJQsqaUBKTNV-1" vertex="1">
          <mxGeometry x="285" y="620" width="140" height="60" as="geometry" />
        </mxCell>
        <mxCell id="FblH6l9M7fZanG1C1Pi8-102" value="" style="endArrow=classic;html=1;rounded=0;exitX=0;exitY=0.5;exitDx=0;exitDy=0;entryX=1.021;entryY=0.788;entryDx=0;entryDy=0;entryPerimeter=0;" parent="WIyWlLk6GJQsqaUBKTNV-1" source="FblH6l9M7fZanG1C1Pi8-93" target="FblH6l9M7fZanG1C1Pi8-81" edge="1">
          <mxGeometry width="50" height="50" relative="1" as="geometry">
            <mxPoint x="260" y="690" as="sourcePoint" />
            <mxPoint x="310" y="640" as="targetPoint" />
          </mxGeometry>
        </mxCell>
        <mxCell id="FblH6l9M7fZanG1C1Pi8-103" value="" style="endArrow=block;html=1;rounded=0;exitX=0.5;exitY=0;exitDx=0;exitDy=0;endFill=0;" parent="WIyWlLk6GJQsqaUBKTNV-1" source="FblH6l9M7fZanG1C1Pi8-98" target="FblH6l9M7fZanG1C1Pi8-81" edge="1">
          <mxGeometry width="50" height="50" relative="1" as="geometry">
            <mxPoint x="355" y="610" as="sourcePoint" />
            <mxPoint x="450" y="550" as="targetPoint" />
          </mxGeometry>
        </mxCell>
        <mxCell id="FblH6l9M7fZanG1C1Pi8-104" value="" style="endArrow=classic;html=1;rounded=0;entryX=1;entryY=0.5;entryDx=0;entryDy=0;exitX=0.985;exitY=0.401;exitDx=0;exitDy=0;exitPerimeter=0;" edge="1" parent="WIyWlLk6GJQsqaUBKTNV-1" source="FblH6l9M7fZanG1C1Pi8-98" target="FblH6l9M7fZanG1C1Pi8-89">
          <mxGeometry width="50" height="50" relative="1" as="geometry">
            <mxPoint x="770" y="385" as="sourcePoint" />
            <mxPoint x="760" y="270" as="targetPoint" />
            <Array as="points">
              <mxPoint x="850" y="650" />
              <mxPoint x="850" y="285" />
            </Array>
          </mxGeometry>
        </mxCell>
        <mxCell id="FblH6l9M7fZanG1C1Pi8-105" value="&lt;i&gt;console logging&lt;/i&gt;&lt;div&gt;&lt;i&gt;creating&amp;nbsp; the server and config objects, passing the config to the server and starting the server&lt;/i&gt;&lt;/div&gt;" style="text;html=1;align=center;verticalAlign=middle;whiteSpace=wrap;rounded=0;" parent="WIyWlLk6GJQsqaUBKTNV-1" vertex="1">
          <mxGeometry x="20" y="150" width="60" height="30" as="geometry" />
        </mxCell>
        <mxCell id="FblH6l9M7fZanG1C1Pi8-110" value="" style="endArrow=classic;html=1;rounded=0;entryX=0.588;entryY=0;entryDx=0;entryDy=0;entryPerimeter=0;exitX=0.544;exitY=1.035;exitDx=0;exitDy=0;exitPerimeter=0;" parent="WIyWlLk6GJQsqaUBKTNV-1" source="FblH6l9M7fZanG1C1Pi8-70" target="FblH6l9M7fZanG1C1Pi8-79" edge="1">
          <mxGeometry width="50" height="50" relative="1" as="geometry">
            <mxPoint x="380" y="360" as="sourcePoint" />
            <mxPoint x="430" y="310" as="targetPoint" />
          </mxGeometry>
        </mxCell>
        <mxCell id="FblH6l9M7fZanG1C1Pi8-111" value="implementations of interfaces should take place of validation, key methods are Create and Get" style="text;html=1;align=center;verticalAlign=middle;whiteSpace=wrap;rounded=0;" parent="WIyWlLk6GJQsqaUBKTNV-1" vertex="1">
          <mxGeometry x="195" y="555" width="60" height="30" as="geometry" />
        </mxCell>
        <mxCell id="FblH6l9M7fZanG1C1Pi8-115" value="os&lt;div&gt;bufio&lt;/div&gt;" style="rounded=0;whiteSpace=wrap;html=1;fillColor=#f5f5f5;fontColor=#333333;strokeColor=#666666;" parent="WIyWlLk6GJQsqaUBKTNV-1" vertex="1">
          <mxGeometry x="30" y="540" width="120" height="60" as="geometry" />
        </mxCell>
        <mxCell id="FblH6l9M7fZanG1C1Pi8-116" value="" style="endArrow=classic;html=1;rounded=0;entryX=0.5;entryY=0;entryDx=0;entryDy=0;exitX=0.5;exitY=1;exitDx=0;exitDy=0;" parent="WIyWlLk6GJQsqaUBKTNV-1" source="FblH6l9M7fZanG1C1Pi8-72" target="FblH6l9M7fZanG1C1Pi8-115" edge="1">
          <mxGeometry width="50" height="50" relative="1" as="geometry">
            <mxPoint x="90" y="740" as="sourcePoint" />
            <mxPoint x="140" y="690" as="targetPoint" />
          </mxGeometry>
        </mxCell>
        <mxCell id="FblH6l9M7fZanG1C1Pi8-117" value="net/http" style="rounded=0;whiteSpace=wrap;html=1;fillColor=#f5f5f5;fontColor=#333333;strokeColor=#666666;" parent="WIyWlLk6GJQsqaUBKTNV-1" vertex="1">
          <mxGeometry x="305" y="110" width="120" height="60" as="geometry" />
        </mxCell>
        <mxCell id="FblH6l9M7fZanG1C1Pi8-118" value="" style="endArrow=classic;html=1;rounded=0;exitX=0.5;exitY=0;exitDx=0;exitDy=0;" parent="WIyWlLk6GJQsqaUBKTNV-1" source="FblH6l9M7fZanG1C1Pi8-68" edge="1">
          <mxGeometry width="50" height="50" relative="1" as="geometry">
            <mxPoint x="310" y="220" as="sourcePoint" />
            <mxPoint x="360" y="170" as="targetPoint" />
          </mxGeometry>
        </mxCell>
        <mxCell id="FblH6l9M7fZanG1C1Pi8-119" value="log" style="rounded=0;whiteSpace=wrap;html=1;fillColor=#f5f5f5;fontColor=#333333;strokeColor=#666666;" parent="WIyWlLk6GJQsqaUBKTNV-1" vertex="1">
          <mxGeometry x="165" y="110" width="120" height="60" as="geometry" />
        </mxCell>
        <mxCell id="FblH6l9M7fZanG1C1Pi8-120" value="" style="endArrow=classic;html=1;rounded=0;entryX=0.25;entryY=1;entryDx=0;entryDy=0;exitX=0.25;exitY=0;exitDx=0;exitDy=0;" parent="WIyWlLk6GJQsqaUBKTNV-1" source="FblH6l9M7fZanG1C1Pi8-68" target="FblH6l9M7fZanG1C1Pi8-119" edge="1">
          <mxGeometry width="50" height="50" relative="1" as="geometry">
            <mxPoint x="410" y="240" as="sourcePoint" />
            <mxPoint x="460" y="190" as="targetPoint" />
          </mxGeometry>
        </mxCell>
        <mxCell id="FblH6l9M7fZanG1C1Pi8-121" value="" style="endArrow=classic;html=1;rounded=0;exitX=0.143;exitY=0;exitDx=0;exitDy=0;exitPerimeter=0;entryX=0.843;entryY=1.046;entryDx=0;entryDy=0;entryPerimeter=0;" parent="WIyWlLk6GJQsqaUBKTNV-1" source="FblH6l9M7fZanG1C1Pi8-88" target="FblH6l9M7fZanG1C1Pi8-117" edge="1">
          <mxGeometry width="50" height="50" relative="1" as="geometry">
            <mxPoint x="530" y="210" as="sourcePoint" />
            <mxPoint x="580" y="160" as="targetPoint" />
          </mxGeometry>
        </mxCell>
        <mxCell id="0bn-AWep2c3Ca-3s1CeS-0" value="" style="endArrow=block;html=1;rounded=0;exitX=0;exitY=0.25;exitDx=0;exitDy=0;entryX=1;entryY=0.5;entryDx=0;entryDy=0;endFill=0;" parent="WIyWlLk6GJQsqaUBKTNV-1" source="FblH6l9M7fZanG1C1Pi8-92" target="FblH6l9M7fZanG1C1Pi8-80" edge="1">
          <mxGeometry width="50" height="50" relative="1" as="geometry">
            <mxPoint x="620" y="430" as="sourcePoint" />
            <mxPoint x="670" y="380" as="targetPoint" />
          </mxGeometry>
        </mxCell>
      </root>
    </mxGraphModel>
  </diagram>
</mxfile>
